<mxfile host="drawio-plugin" modified="2023-09-18T13:28:32.593Z" agent="5.0 (Macintosh; Intel Mac OS X 10_15_7) AppleWebKit/537.36 (KHTML, like Gecko) Chrome/111.0.0.0 Safari/537.36" etag="O-7CeF41aHuSNoj-ILuC" version="20.5.3" type="embed"><diagram name="Страница — 1" id="de85JVFHmP8NqLnUoWGZ"><mxGraphModel dx="766" dy="684" grid="1" gridSize="10" guides="1" tooltips="1" connect="1" arrows="1" fold="1" page="1" pageScale="1" pageWidth="827" pageHeight="1169" math="0" shadow="0"><root><mxCell id="0"/><mxCell id="1" parent="0"/><mxCell id="2" value="Client" style="shape=umlActor;verticalLabelPosition=bottom;verticalAlign=top;html=1;outlineConnect=0;" parent="1" vertex="1"><mxGeometry x="140" y="287.5" width="30" height="60" as="geometry"/></mxCell><mxCell id="4" value="" style="whiteSpace=wrap;html=1;aspect=fixed;" parent="1" vertex="1"><mxGeometry x="307.5" y="270" width="95" height="95" as="geometry"/></mxCell><mxCell id="5" value="TelegramBotSvc" style="text;html=1;resizable=0;autosize=1;align=center;verticalAlign=middle;points=[];fillColor=none;strokeColor=none;rounded=0;" parent="1" vertex="1"><mxGeometry x="300" y="295" width="110" height="30" as="geometry"/></mxCell><mxCell id="6" value="" style="endArrow=classic;startArrow=classic;html=1;rounded=0;" parent="1" source="2" target="4" edge="1"><mxGeometry width="50" height="50" relative="1" as="geometry"><mxPoint x="370" y="380" as="sourcePoint"/><mxPoint x="420" y="330" as="targetPoint"/><Array as="points"/></mxGeometry></mxCell><mxCell id="7" value="" style="shape=cylinder3;whiteSpace=wrap;html=1;boundedLbl=1;backgroundOutline=1;size=15;" parent="1" vertex="1"><mxGeometry x="320" y="645" width="70" height="90" as="geometry"/></mxCell><mxCell id="8" value="PostgreSql" style="text;html=1;resizable=0;autosize=1;align=center;verticalAlign=middle;points=[];fillColor=none;strokeColor=none;rounded=0;" parent="1" vertex="1"><mxGeometry x="315" y="690" width="80" height="30" as="geometry"/></mxCell><mxCell id="9" value="" style="endArrow=classic;html=1;rounded=0;" parent="1" source="4" target="7" edge="1"><mxGeometry width="50" height="50" relative="1" as="geometry"><mxPoint x="335" y="570" as="sourcePoint"/><mxPoint x="400" y="535" as="targetPoint"/></mxGeometry></mxCell><mxCell id="10" value="/reg {email}" style="text;html=1;resizable=0;autosize=1;align=center;verticalAlign=middle;points=[];fillColor=none;strokeColor=none;rounded=0;" parent="1" vertex="1"><mxGeometry x="280" y="400" width="80" height="30" as="geometry"/></mxCell><mxCell id="11" value="consumer" style="text;html=1;resizable=0;autosize=1;align=center;verticalAlign=middle;points=[];fillColor=none;strokeColor=none;rounded=0;" parent="1" vertex="1"><mxGeometry x="410" y="460" width="80" height="30" as="geometry"/></mxCell><mxCell id="14" value="" style="sketch=0;points=[[0,0,0],[0.25,0,0],[0.5,0,0],[0.75,0,0],[1,0,0],[0,1,0],[0.25,1,0],[0.5,1,0],[0.75,1,0],[1,1,0],[0,0.25,0],[0,0.5,0],[0,0.75,0],[1,0.25,0],[1,0.5,0],[1,0.75,0]];outlineConnect=0;fontColor=#232F3E;gradientColor=#FF4F8B;gradientDirection=north;fillColor=#BC1356;strokeColor=#ffffff;dashed=0;verticalLabelPosition=bottom;verticalAlign=top;align=center;html=1;fontSize=12;fontStyle=0;aspect=fixed;shape=mxgraph.aws4.resourceIcon;resIcon=mxgraph.aws4.mq;" parent="1" vertex="1"><mxGeometry x="420" y="657" width="78" height="78" as="geometry"/></mxCell><mxCell id="15" value="Kafka" style="text;html=1;resizable=0;autosize=1;align=center;verticalAlign=middle;points=[];fillColor=none;strokeColor=none;rounded=0;" parent="1" vertex="1"><mxGeometry x="434" y="627" width="50" height="30" as="geometry"/></mxCell><mxCell id="16" value="" style="sketch=0;aspect=fixed;html=1;points=[];align=center;image;fontSize=12;image=img/lib/mscae/Docker.svg;" parent="1" vertex="1"><mxGeometry x="230" y="589" width="50" height="41" as="geometry"/></mxCell><mxCell id="18" value="" style="endArrow=classic;html=1;rounded=0;" parent="1" source="4" target="15" edge="1"><mxGeometry width="50" height="50" relative="1" as="geometry"><mxPoint x="569.0150000000001" y="356" as="sourcePoint"/><mxPoint x="500" y="541" as="targetPoint"/></mxGeometry></mxCell><mxCell id="19" value="" style="html=1;whiteSpace=wrap;shape=isoCube2;backgroundOutline=1;isoAngle=15;" parent="1" vertex="1"><mxGeometry x="510" y="660" width="70" height="60" as="geometry"/></mxCell><mxCell id="20" value="&amp;nbsp;Kafka ui" style="text;html=1;resizable=0;autosize=1;align=center;verticalAlign=middle;points=[];fillColor=none;strokeColor=none;rounded=0;" parent="1" vertex="1"><mxGeometry x="510" y="630" width="70" height="30" as="geometry"/></mxCell><mxCell id="21" value="" style="whiteSpace=wrap;html=1;aspect=fixed;" parent="1" vertex="1"><mxGeometry x="660" y="267.5" width="100" height="100" as="geometry"/></mxCell><mxCell id="24" value="CentrobankSvc" style="text;html=1;resizable=0;autosize=1;align=center;verticalAlign=middle;points=[];fillColor=none;strokeColor=none;rounded=0;" parent="1" vertex="1"><mxGeometry x="655" y="280" width="110" height="30" as="geometry"/></mxCell><mxCell id="32" value="" style="whiteSpace=wrap;html=1;" parent="1" vertex="1"><mxGeometry x="550" y="80" width="320" height="60" as="geometry"/></mxCell><mxCell id="31" value="&lt;div style=&quot;background-color:#292a2f;color:#ffffff&quot;&gt;&lt;pre style=&quot;font-family:'Monaco',monospace;font-size:10.5pt;&quot;&gt;&lt;span style=&quot;color:#5482ff;&quot;&gt;https://api.freecurrencyapi.com/v1/&lt;/span&gt;&lt;/pre&gt;&lt;/div&gt;" style="text;html=1;resizable=0;autosize=1;align=center;verticalAlign=middle;points=[];fillColor=none;strokeColor=none;rounded=0;" parent="1" vertex="1"><mxGeometry x="550" y="80" width="320" height="60" as="geometry"/></mxCell><mxCell id="33" value="" style="endArrow=classic;startArrow=classic;html=1;rounded=0;" parent="1" source="21" target="31" edge="1"><mxGeometry width="50" height="50" relative="1" as="geometry"><mxPoint x="570" y="220" as="sourcePoint"/><mxPoint x="677.5" y="220" as="targetPoint"/><Array as="points"/></mxGeometry></mxCell><mxCell id="35" value="" style="endArrow=none;dashed=1;html=1;dashPattern=1 3;strokeWidth=2;rounded=0;" parent="1" edge="1"><mxGeometry width="50" height="50" relative="1" as="geometry"><mxPoint x="220" y="760" as="sourcePoint"/><mxPoint x="220" y="585" as="targetPoint"/><Array as="points"><mxPoint x="220" y="715"/></Array></mxGeometry></mxCell><mxCell id="36" value="" style="endArrow=none;dashed=1;html=1;dashPattern=1 3;strokeWidth=2;rounded=0;" parent="1" edge="1"><mxGeometry width="50" height="50" relative="1" as="geometry"><mxPoint x="640" y="760" as="sourcePoint"/><mxPoint x="640" y="580" as="targetPoint"/><Array as="points"><mxPoint x="640" y="725"/></Array></mxGeometry></mxCell><mxCell id="37" value="" style="endArrow=none;dashed=1;html=1;dashPattern=1 3;strokeWidth=2;rounded=0;" parent="1" edge="1"><mxGeometry width="50" height="50" relative="1" as="geometry"><mxPoint x="220" y="760" as="sourcePoint"/><mxPoint x="640" y="760" as="targetPoint"/><Array as="points"><mxPoint x="260" y="760"/></Array></mxGeometry></mxCell><mxCell id="38" value="" style="endArrow=none;dashed=1;html=1;dashPattern=1 3;strokeWidth=2;rounded=0;" parent="1" edge="1"><mxGeometry width="50" height="50" relative="1" as="geometry"><mxPoint x="220" y="580" as="sourcePoint"/><mxPoint x="640" y="580" as="targetPoint"/><Array as="points"><mxPoint x="260" y="580"/></Array></mxGeometry></mxCell><mxCell id="39" value="" style="endArrow=classic;html=1;rounded=0;entryX=0.65;entryY=0.05;entryDx=0;entryDy=0;entryPerimeter=0;" parent="1" source="21" target="15" edge="1"><mxGeometry width="50" height="50" relative="1" as="geometry"><mxPoint x="720.0034206471494" y="375" as="sourcePoint"/><mxPoint x="803.9726040061632" y="637" as="targetPoint"/></mxGeometry></mxCell><mxCell id="40" value="producer" style="text;html=1;resizable=0;autosize=1;align=center;verticalAlign=middle;points=[];fillColor=none;strokeColor=none;rounded=0;" parent="1" vertex="1"><mxGeometry x="545" y="450" width="70" height="30" as="geometry"/></mxCell><mxCell id="41" value="" style="verticalLabelPosition=bottom;sketch=0;aspect=fixed;html=1;verticalAlign=top;strokeColor=none;align=center;outlineConnect=0;shape=mxgraph.citrix.smtp_server;" parent="1" vertex="1"><mxGeometry x="317" y="90" width="76" height="92" as="geometry"/></mxCell><mxCell id="42" value="Yandex SMTP" style="text;html=1;resizable=0;autosize=1;align=center;verticalAlign=middle;points=[];fillColor=none;strokeColor=none;rounded=0;" parent="1" vertex="1"><mxGeometry x="302.5" y="50" width="100" height="30" as="geometry"/></mxCell><mxCell id="43" value="" style="endArrow=classic;startArrow=classic;html=1;rounded=0;" parent="1" source="4" target="41" edge="1"><mxGeometry width="50" height="50" relative="1" as="geometry"><mxPoint x="430" y="330" as="sourcePoint"/><mxPoint x="480" y="280" as="targetPoint"/></mxGeometry></mxCell><mxCell id="44" value="scheduled&amp;nbsp;&lt;br&gt;once per hour&amp;nbsp;" style="text;html=1;resizable=0;autosize=1;align=center;verticalAlign=middle;points=[];fillColor=none;strokeColor=none;rounded=0;" vertex="1" parent="1"><mxGeometry x="610" y="190" width="100" height="40" as="geometry"/></mxCell></root></mxGraphModel></diagram></mxfile>